<svg width="167" height="38" viewBox="0 0 167 38" fill="none" xmlns="http://www.w3.org/2000/svg">
<path d="M96.5404 36.8388V32.4829C97.407 32.5956 97.9721 32.5956 98.5373 32.5956C101.175 32.5956 101.89 31.6943 103.171 29.1034L94.4306 9.05135H100.27C103.85 17.7631 105.545 22.6447 105.997 24.1091H106.073C106.638 22.1941 108.295 16.937 111.272 9.05135H116.697L109.878 26.1369C106.525 34.6233 105.432 37.0641 99.4038 37.0641C98.5749 37.0641 97.2186 36.989 96.5404 36.8388Z" fill="#0B6D5B"/>
<path d="M72.9568 28.3148V0.264526H78.2691V17.6504C80.2283 15.6603 84.6741 11.6048 87.3114 9.05136H93.6787L85.2769 16.4488L94.5452 28.3148H88.0649L81.5093 19.4153L78.2691 22.119V28.3148H72.9568Z" fill="#0B6D5B"/>
<path d="M70.6152 14.4211H65.3406C65.0768 13.4448 64.3233 12.1305 61.1208 12.1305C58.4081 12.1305 57.8807 13.2195 57.8807 14.0456C57.8807 15.0219 58.5965 15.6227 62.4395 16.186C70.1254 17.3125 71.2557 19.7908 71.2557 22.532C71.2557 26.0242 68.5807 28.8405 61.799 28.8405C56.4113 28.8405 52.5306 26.5499 51.8901 22.4194H57.2025C57.73 24.0716 59.237 25.123 62.1381 25.123C65.1145 25.123 66.0187 24.1467 66.0187 22.9826C66.0187 21.7434 65.1145 21.03 60.9324 20.5043C53.7363 19.528 52.6437 16.8994 52.6437 14.5337C52.6437 11.755 54.7912 8.52564 61.3469 8.52564C68.1286 8.52564 70.3515 11.7925 70.6152 14.4211Z" fill="#0B6D5B"/>
<path d="M0 3.18604C16.2382 -3.63972 26.7392 14.3906 40.8297 0C31.1029 12.6922 31.4914 21.1595 43.9477 37.0643C26.2917 22.7932 15.5154 22.1315 3.56814 33.3512C18.8887 12.0157 15.7563 1.41818 0 3.18604Z" fill="#0B6D5B"/>
<path d="M145.298 18.6643C145.298 13.2946 149.141 8.52564 156.225 8.52564C163.496 8.52564 167 13.7827 167 18.6643C167 24.4095 163.082 28.8405 155.998 28.8405C148.991 28.8405 145.298 23.9965 145.298 18.6643ZM156.149 24.7475C159.804 24.7475 161.499 21.9688 161.499 18.7394C161.499 15.5476 159.766 12.5811 156.111 12.5811C152.457 12.5811 150.761 15.4349 150.761 18.6643C150.761 21.8937 152.645 24.7475 156.149 24.7475Z" fill="#049B60"/>
<path d="M143.335 28.3148H137.985V9.05136H143.335V28.3148ZM143.335 4.95835H137.985V0.264526H143.335V4.95835Z" fill="#049B60"/>
<path d="M122.136 14.7215H116.786C116.974 12.2807 118.67 8.52564 126.017 8.52564C133.966 8.52564 135.285 12.2807 135.285 15.5101V23.0953C135.285 25.4234 135.398 27.9017 135.436 28.3148H130.425C130.274 27.7891 130.199 26.5124 130.199 25.9491C129.144 27.714 126.921 28.8405 123.153 28.8405C117.803 28.8405 115.693 25.6112 115.693 22.5696C115.693 17.5753 120.177 16.1484 125.828 16.1484H130.086V15.435C130.086 13.7076 129.332 12.2056 126.092 12.2056C123.116 12.2056 122.437 13.4072 122.136 14.7215ZM130.086 20.0912V19.6031H125.904C122.4 19.6031 120.893 20.4667 120.893 22.3067C120.893 23.7712 122.023 24.9728 124.585 24.9728C128.503 24.9728 130.086 22.9826 130.086 20.0912Z" fill="#049B60"/>
</svg>
