<svg width="44" height="44" viewBox="0 0 44 44" fill="none" xmlns="http://www.w3.org/2000/svg">
<path fill-rule="evenodd" clip-rule="evenodd" d="M33.1174 12.8333H10.8827C9.91657 12.8333 9.11724 13.5813 9.05307 14.5438L7.59374 36.4228C7.45257 38.5385 9.13191 40.3333 11.2531 40.3333H32.7471C34.8682 40.3333 36.5476 38.5385 36.4064 36.4228L34.9471 14.5438C34.8829 13.5813 34.0836 12.8333 33.1174 12.8333Z" stroke="#0A7360" stroke-width="2" stroke-linecap="round" stroke-linejoin="round"/>
<path d="M27.5018 16.5V9.16667V9.16667V9.16667C27.5018 6.12884 25.0397 3.66667 22.0018 3.66667H22C18.9622 3.66667 16.5 6.12884 16.5 9.16667V9.16667V9.16667V16.5" stroke="#0A7360" stroke-width="2" stroke-linecap="round" stroke-linejoin="round"/>
<path fill-rule="evenodd" clip-rule="evenodd" d="M22 24.8142C22.4217 24.3522 23.1495 23.8333 24.2587 23.8333C26.1983 23.8333 27.5 25.5402 27.5 27.1297C27.5 30.4535 23.0872 33 22 33C20.9128 33 16.5 30.4535 16.5 27.1297C16.5 25.5402 17.8017 23.8333 19.7413 23.8333C20.8505 23.8333 21.5783 24.3522 22 24.8142Z" stroke="#0A7360" stroke-width="2" stroke-linecap="round" stroke-linejoin="round"/>
</svg>
