<svg width="32" height="32" viewBox="0 0 32 32" fill="none" xmlns="http://www.w3.org/2000/svg">
<path d="M13.208 22.344V22.709C13.208 23.974 14.234 25 15.5 25V25C16.766 25 17.792 23.974 17.792 22.708V22.343" stroke="#131414" stroke-width="1.5" stroke-linecap="round" stroke-linejoin="round"/>
<path d="M17.333 9.751V8.833C17.333 7.821 16.513 7 15.5 7V7C14.487 7 13.667 7.821 13.667 8.833V9.751" stroke="#131414" stroke-width="1.5" stroke-linecap="round" stroke-linejoin="round"/>
<path fill-rule="evenodd" clip-rule="evenodd" d="M10.063 14.188V14.188C10.063 11.685 12.092 9.65701 14.594 9.65701H16.407C18.91 9.65701 20.938 11.686 20.938 14.188V14.188V16.985C20.938 17.515 21.149 18.024 21.524 18.399L22.165 19.04C22.54 19.415 22.751 19.924 22.751 20.454V20.454C22.751 21.498 21.905 22.344 20.861 22.344H10.14C9.096 22.344 8.25 21.498 8.25 20.454V20.454C8.25 19.924 8.461 19.415 8.836 19.04L9.477 18.399C9.852 18.024 10.063 17.515 10.063 16.985V14.188Z" stroke="#131414" stroke-width="1.5" stroke-linecap="round" stroke-linejoin="round"/>
</svg>
