<svg width="20" height="20" viewBox="0 0 20 20" fill="none" xmlns="http://www.w3.org/2000/svg">
<path d="M12.5 3.33334H17.0833" stroke="#131414" stroke-width="1.5" stroke-linecap="round" stroke-linejoin="round"/>
<path d="M5.00004 14.1667V11.6667" stroke="#131414" stroke-width="1.5" stroke-linecap="round" stroke-linejoin="round"/>
<path d="M14.5833 17.5H4.16667C3.24619 17.5 2.5 16.7538 2.5 15.8333V15C2.5 14.5398 2.8731 14.1667 3.33333 14.1667H12.5C12.9602 14.1667 13.3333 14.5398 13.3333 15V16.25C13.3333 16.9404 13.893 17.5 14.5833 17.5V17.5C15.2737 17.5 15.8333 16.9404 15.8333 16.25V4.58333C15.8333 3.89297 16.393 3.33333 17.0833 3.33333V3.33333C17.7737 3.33333 18.3333 3.89297 18.3333 4.58333V6.66666C18.3333 7.1269 17.9602 7.5 17.5 7.5H15.8333" stroke="#131414" stroke-width="1.5" stroke-linecap="round" stroke-linejoin="round"/>
<rect x="10" y="9.16667" width="7.5" height="6.66667" rx="2.25" transform="rotate(-180 10 9.16667)" stroke="#131414" stroke-width="1.5" stroke-linecap="round" stroke-linejoin="round"/>
<path d="M7.5 5C7.5 5.69036 6.94036 6.25 6.25 6.25C5.55964 6.25 5 5.69036 5 5" stroke="#131414" stroke-width="1.5" stroke-linecap="round" stroke-linejoin="round"/>
</svg>
