<svg width="44" height="44" viewBox="0 0 44 44" fill="none" xmlns="http://www.w3.org/2000/svg">
<path fill-rule="evenodd" clip-rule="evenodd" d="M38.3644 29.3315V14.6685C38.3644 13.3577 37.6659 12.1477 36.5311 11.4932L23.8334 4.16167C22.6986 3.50717 21.3016 3.50717 20.1667 4.16167L7.46908 11.4932C6.33424 12.1477 5.63574 13.3595 5.63574 14.6685V29.3297C5.63574 30.6405 6.33424 31.8505 7.46908 32.505L20.1667 39.8383C21.3016 40.4928 22.6986 40.4928 23.8334 39.8383L36.5311 32.5068C37.6659 31.8523 38.3644 30.6405 38.3644 29.3315Z" stroke="#0A7360" stroke-width="2" stroke-linecap="round" stroke-linejoin="round"/>
<path d="M11.3118 23.155L16.8118 26.345" stroke="#0A7360" stroke-width="2" stroke-linecap="round" stroke-linejoin="round"/>
<path d="M6.1272 12.8352L22.0002 22L37.8732 12.8352" stroke="#0A7360" stroke-width="2" stroke-linecap="round" stroke-linejoin="round"/>
<path d="M22.0002 40.3333V22" stroke="#0A7360" stroke-width="2" stroke-linecap="round" stroke-linejoin="round"/>
<path d="M29.9385 17.4167L13.8235 7.82833" stroke="#0A7360" stroke-width="2" stroke-linecap="round" stroke-linejoin="round"/>
</svg>
