<svg width="44" height="44" viewBox="0 0 44 44" fill="none" xmlns="http://www.w3.org/2000/svg">
<path d="M9.16667 16.5H2.75" stroke="#0A7360" stroke-width="2" stroke-linecap="round" stroke-linejoin="round"/>
<path d="M9.16675 27.5H6.41675" stroke="#0A7360" stroke-width="2" stroke-linecap="round" stroke-linejoin="round"/>
<path d="M9.16659 22H4.58325" stroke="#0A7360" stroke-width="2" stroke-linecap="round" stroke-linejoin="round"/>
<path d="M10.3328 10.3327C15.0517 5.6137 22.1487 4.20203 28.3143 6.75591C34.4799 9.3098 38.5 15.3263 38.5 21.9999C38.5 28.6736 34.4799 34.6901 28.3143 37.2439C22.1487 39.7978 15.0517 38.3862 10.3328 33.6672" stroke="#0A7360" stroke-width="2" stroke-linecap="round" stroke-linejoin="round"/>
<path d="M21.9999 13.75V15.5833" stroke="#0A7360" stroke-width="2" stroke-linecap="round" stroke-linejoin="round"/>
<path d="M21.9999 30.25V28.4167" stroke="#0A7360" stroke-width="2" stroke-linecap="round" stroke-linejoin="round"/>
<path d="M26.02 18.1887C25.3993 16.5303 23.7673 15.4725 22 15.5833C19.9479 15.3886 18.116 16.8686 17.875 18.9157C17.875 20.2294 18.8022 21.3604 20.0904 21.6181L23.9096 22.3819C25.1978 22.6396 26.125 23.7706 26.125 25.0843C25.884 27.1314 24.0521 28.6114 22 28.4167C20.2327 28.5274 18.6007 27.4697 17.98 25.8113" stroke="#0A7360" stroke-width="2" stroke-linecap="round" stroke-linejoin="round"/>
</svg>
