<svg width="20" height="20" viewBox="0 0 20 20" fill="none" xmlns="http://www.w3.org/2000/svg">
<path fill-rule="evenodd" clip-rule="evenodd" d="M11.8025 17.4999L15.5058 16.6765C16.1842 16.5265 16.6667 15.9249 16.6667 15.2307V4.80487C16.6667 4.1107 16.1842 3.50904 15.5067 3.35904L11.8033 2.5357C10.8775 2.32987 10 3.03404 10 3.98237V16.054C10 17.0015 10.8775 17.7057 11.8025 17.4999V17.4999Z" stroke="#AE270F" stroke-width="1.5" stroke-linecap="round" stroke-linejoin="round"/>
<path d="M12.5 9.1499V10.8166" stroke="#AE270F" stroke-width="1.5" stroke-linecap="round" stroke-linejoin="round"/>
<path d="M3.33334 13.3333V15.0349C3.33334 15.9558 4.07918 16.7016 5.00001 16.7016H7.50001" stroke="#AE270F" stroke-width="1.5" stroke-linecap="round" stroke-linejoin="round"/>
<path d="M3.33334 6.66659V4.99992C3.33334 4.07909 4.07918 3.33325 5.00001 3.33325H7.50001" stroke="#AE270F" stroke-width="1.5" stroke-linecap="round" stroke-linejoin="round"/>
<path d="M3.33334 9.99992H7.50001" stroke="#AE270F" stroke-width="1.5" stroke-linecap="round" stroke-linejoin="round"/>
<path d="M5.83334 11.6666L7.50001 9.99992L5.83334 8.33325" stroke="#AE270F" stroke-width="1.5" stroke-linecap="round" stroke-linejoin="round"/>
</svg>
