<svg width="44" height="44" viewBox="0 0 44 44" fill="none" xmlns="http://www.w3.org/2000/svg">
<path d="M33 12.8333V9.16667C33 7.14083 31.3592 5.5 29.3333 5.5H9.16667C7.14083 5.5 5.5 7.14083 5.5 9.16667V18.3333C5.5 20.3592 7.14083 22 9.16667 22H12.8333" stroke="#0A7360" stroke-width="2" stroke-linecap="round" stroke-linejoin="round"/>
<path fill-rule="evenodd" clip-rule="evenodd" d="M35.6473 38.5H15.6859C14.1093 38.5 12.8333 37.224 12.8333 35.6473V15.686C12.8333 14.1093 14.1093 12.8333 15.6859 12.8333H35.6491C37.2239 12.8333 38.4999 14.1093 38.4999 15.686V35.6492C38.4999 37.224 37.2239 38.5 35.6473 38.5Z" stroke="#0A7360" stroke-width="2" stroke-linecap="round" stroke-linejoin="round"/>
<path d="M32.7982 19.965H24.2366" stroke="#0A7360" stroke-width="2" stroke-linecap="round" stroke-linejoin="round"/>
<path d="M24.2366 25.6667H32.7982" stroke="#0A7360" stroke-width="2" stroke-linecap="round" stroke-linejoin="round"/>
<path d="M24.2366 31.3683H32.7982" stroke="#0A7360" stroke-width="2" stroke-linecap="round" stroke-linejoin="round"/>
<path d="M18.535 25.311C18.3388 25.311 18.1793 25.4705 18.1811 25.6667C18.1811 25.8628 18.3406 26.0223 18.5368 26.0223C18.733 26.0223 18.8925 25.8628 18.8925 25.6667C18.8925 25.4705 18.733 25.311 18.535 25.311" stroke="#0A7360" stroke-width="2" stroke-linecap="round" stroke-linejoin="round"/>
<path d="M18.535 31.0145C18.3388 31.0145 18.1793 31.174 18.1811 31.3702C18.1811 31.5663 18.3406 31.7258 18.5368 31.7258C18.733 31.7258 18.8925 31.5663 18.8925 31.3702C18.8925 31.174 18.733 31.0145 18.535 31.0145" stroke="#0A7360" stroke-width="2" stroke-linecap="round" stroke-linejoin="round"/>
<path d="M18.535 19.6057C18.3388 19.6057 18.1793 19.7652 18.1811 19.9613C18.1811 20.1575 18.3406 20.317 18.5368 20.317C18.733 20.317 18.8925 20.1575 18.8925 19.9613C18.8943 19.767 18.733 19.6057 18.535 19.6057" stroke="#0A7360" stroke-width="2" stroke-linecap="round" stroke-linejoin="round"/>
</svg>
