<svg width="59" height="14" viewBox="0 0 59 14" fill="none" xmlns="http://www.w3.org/2000/svg">
<g clip-path="url(#clip0_1001_3074)">
<path fill-rule="evenodd" clip-rule="evenodd" d="M3.4938 0.894867V13.9773H0V0.894867H3.4938Z" fill="white"/>
<path fill-rule="evenodd" clip-rule="evenodd" d="M5.24072 0.894867H12.6651C15.077 0.894867 17.0323 2.84726 17.0323 5.25567C17.0323 7.66408 15.077 9.61647 12.6651 9.61647H8.73453V13.9773H5.24072V0.894867ZM8.73453 6.12783H12.6651C13.1475 6.12783 13.5385 5.73734 13.5385 5.25567C13.5385 4.77399 13.1475 4.38351 12.6651 4.38351H8.73453V6.12783Z" fill="white"/>
<path fill-rule="evenodd" clip-rule="evenodd" d="M30.1342 0.894867V7.65411C30.1342 9.21956 31.4051 10.4886 32.9729 10.4886C34.5407 10.4886 35.8117 9.21956 35.8117 7.65411V0.894867H39.3055V7.65411C39.3055 11.1463 36.4703 13.9773 32.9729 13.9773C29.4755 13.9773 26.6404 11.1463 26.6404 7.65411V0.894867H30.1342Z" fill="white"/>
<path fill-rule="evenodd" clip-rule="evenodd" d="M18.3424 6.99999C18.3424 3.62822 21.0798 0.894867 24.4566 0.894867H25.33V4.38351H24.4566C23.0094 4.38351 21.8362 5.55496 21.8362 6.99999V7.43607C21.8362 11.0487 18.9033 13.9773 15.2853 13.9773H14.8486V10.4886H15.2853C16.9737 10.4886 18.3424 9.12195 18.3424 7.43607V6.99999Z" fill="white"/>
<path d="M58.958 1.33094C58.958 2.05347 58.3715 2.63918 57.6476 2.63918C56.9241 2.63918 56.3376 2.05347 56.3376 1.33094C56.3376 0.608423 56.9241 0.0227051 57.6476 0.0227051C58.3715 0.0227051 58.958 0.608423 58.958 1.33094Z" fill="white"/>
<path d="M43.0567 13.9773L44.724 7.0063L45.9635 11.2001C46.7024 13.7013 50.2507 13.7013 50.9899 11.2001L52.2291 7.0063L53.8963 13.9773H57.4882L54.8668 3.01578C54.2434 0.409048 50.5646 0.312532 49.8048 2.88301L48.4767 7.37791L47.1482 2.88301C46.3887 0.312547 42.7096 0.409034 42.0862 3.01577L39.4648 13.9773H43.0567Z" fill="white"/>
</g>
<defs>
<clipPath id="clip0_1001_3074">
<rect width="58.958" height="13.9546" fill="white" transform="translate(0 0.0227051)"/>
</clipPath>
</defs>
</svg>
