<svg width="44" height="44" viewBox="0 0 44 44" fill="none" xmlns="http://www.w3.org/2000/svg">
<path fill-rule="evenodd" clip-rule="evenodd" d="M30.2498 12.8333H13.7498C12.7378 12.8333 11.9165 13.6547 11.9165 14.6667V16.5C11.9165 17.512 12.7378 18.3333 13.7498 18.3333H30.2498C31.2618 18.3333 32.0832 17.512 32.0832 16.5V14.6667C32.0832 13.6547 31.2618 12.8333 30.2498 12.8333Z" stroke="#0A7360" stroke-width="2" stroke-linecap="round" stroke-linejoin="round"/>
<path d="M28.5835 12.8333L30.4095 9.18133C31.5718 6.85667 29.1573 4.36517 26.7978 5.45417L22 7.66883L17.2022 5.45417C14.8427 4.36517 12.4282 6.85483 13.5905 9.18133L15.4165 12.8333" stroke="#0A7360" stroke-width="2" stroke-linecap="round" stroke-linejoin="round"/>
<path d="M14.2082 18.3333L11.0604 23.3695C8.82192 26.9518 9.05108 31.5498 11.6361 34.892V34.892C13.5464 37.3633 16.4944 38.808 19.6184 38.808H24.3832C27.5054 38.808 30.4534 37.3615 32.3637 34.892V34.892C34.9506 31.5498 35.1797 26.9518 32.9412 23.3677C31.9421 21.7672 30.8457 20.0145 29.7934 18.3297" stroke="#0A7360" stroke-width="2" stroke-linecap="round" stroke-linejoin="round"/>
</svg>
