<svg width="20" height="20" viewBox="0 0 20 20" fill="none" xmlns="http://www.w3.org/2000/svg">
<path fill-rule="evenodd" clip-rule="evenodd" d="M8.71285 10.7228C9.8561 10.7228 10.7829 9.79601 10.7829 8.65276C10.7829 7.50952 9.8561 6.58273 8.71285 6.58273C7.56961 6.58273 6.64282 7.50952 6.64282 8.65276C6.64282 9.79601 7.56961 10.7228 8.71285 10.7228Z" stroke="#131414" stroke-width="1.5" stroke-linecap="round" stroke-linejoin="round"/>
<path d="M14.9095 9.10296C15.0921 6.24679 13.2999 3.63542 10.5691 2.77877C7.83831 1.92211 4.87563 3.04186 3.39411 5.49057C1.91259 7.93928 2.29562 11.0833 4.32173 13.1046L8.71273 17.5031" stroke="#131414" stroke-width="1.5" stroke-linecap="round" stroke-linejoin="round"/>
<path d="M14.5853 11.6674V14.1684" stroke="#131414" stroke-width="1.5" stroke-linecap="round" stroke-linejoin="round"/>
<path d="M17.5032 14.817C17.5032 14.4588 17.2129 14.1684 16.8546 14.1684H12.3161C11.9579 14.1684 11.6675 14.4588 11.6675 14.817" stroke="#131414" stroke-width="1.5" stroke-linecap="round" stroke-linejoin="round"/>
<path fill-rule="evenodd" clip-rule="evenodd" d="M12.5012 17.5031H16.6696C17.13 17.5031 17.5032 17.1299 17.5032 16.6694V13.6974C17.5032 13.3595 17.4348 13.0252 17.3023 12.7145L17.0706 12.1734C16.9394 11.8666 16.638 11.6675 16.3044 11.6674H12.8663C12.5324 11.6672 12.2306 11.8663 12.0993 12.1734L11.8684 12.7136C11.7359 13.0244 11.6675 13.3587 11.6675 13.6965V16.6694C11.6675 17.1299 12.0407 17.5031 12.5012 17.5031Z" stroke="#131414" stroke-width="1.5" stroke-linecap="round" stroke-linejoin="round"/>
</svg>
