<svg width="44" height="44" viewBox="0 0 44 44" fill="none" xmlns="http://www.w3.org/2000/svg">
<path d="M5.5 33C5.5 28.9502 8.7835 25.6667 12.8333 25.6667H20.1667C24.2165 25.6667 27.5 28.9502 27.5 33" stroke="#0A7360" stroke-width="2" stroke-linecap="round" stroke-linejoin="round"/>
<path d="M29.3333 8.52684C31.8651 8.52684 33.9166 10.5783 33.9166 13.1102C33.9166 15.642 31.8651 17.6935 29.3333 17.6935" stroke="#0A7360" stroke-width="2" stroke-linecap="round" stroke-linejoin="round"/>
<path d="M20.909 9.15958C23.344 11.5946 23.344 15.5425 20.909 17.9774C18.474 20.4124 14.5261 20.4124 12.0911 17.9774C9.65615 15.5425 9.65615 11.5946 12.0911 9.15958C14.5261 6.7246 18.474 6.7246 20.909 9.15958" stroke="#0A7360" stroke-width="2" stroke-linecap="round" stroke-linejoin="round"/>
<path d="M31.1667 23.8333C35.2166 23.8333 38.5001 27.1168 38.5001 31.1667" stroke="#0A7360" stroke-width="2" stroke-linecap="round" stroke-linejoin="round"/>
</svg>
